<svg width="128" height="41" viewBox="0 0 128 41" fill="none" xmlns="http://www.w3.org/2000/svg">
<path fill-rule="evenodd" clip-rule="evenodd" d="M2.84639 10.5302L16.8953 2.32475C17.3588 2.05403 17.9298 2.05403 18.3933 2.32475L32.4422 10.5302C32.9057 10.801 33.1913 11.3013 33.1913 11.8427V28.2537C33.1913 28.7951 32.9057 29.2954 32.4422 29.5662L18.3933 37.7716C17.9298 38.0424 17.3588 38.0424 16.8953 37.7716L2.84639 29.5662C2.38288 29.2954 2.09735 28.7951 2.09735 28.2537V11.8427C2.09735 11.3013 2.38288 10.801 2.84639 10.5302ZM15.8466 0.487294C16.959 -0.162431 18.3296 -0.162431 19.442 0.487294L33.4909 8.69278C34.6033 9.34251 35.2886 10.5433 35.2886 11.8427V28.2537C35.2886 29.5531 34.6033 30.7539 33.4909 31.4036L19.442 39.6091C18.3296 40.2588 16.959 40.2588 15.8466 39.6091L1.79774 31.4036C0.685322 30.7539 4.57764e-05 29.5531 4.57764e-05 28.2537V11.8427C4.57764e-05 10.5433 0.685322 9.34251 1.79774 8.69279L15.8466 0.487294Z" fill="#5273EF"/>
<path fill-rule="evenodd" clip-rule="evenodd" d="M16.5129 11.0016C17.2126 10.5887 18.0778 10.5887 18.7774 11.0016L24.477 14.365C25.5671 15.0083 25.5671 16.6017 24.477 17.2449L18.7774 20.6084C18.0778 21.0213 17.2126 21.0213 16.5129 20.6084L14.2821 19.2919C13.7819 18.9967 13.6129 18.3471 13.9047 17.841C14.1965 17.335 14.8386 17.164 15.3389 17.4592L17.5697 18.7757C17.6163 18.8032 17.674 18.8032 17.7207 18.7757L22.7548 15.805L17.7207 12.8342C17.674 12.8067 17.6163 12.8067 17.5697 12.8342L11.5774 16.3704C11.5314 16.3976 11.5031 16.4474 11.5031 16.5013V23.5954C11.5031 23.6493 11.5314 23.6992 11.5774 23.7263L17.5697 27.2625C17.6163 27.29 17.674 27.29 17.7207 27.2625L24.3076 23.3754C24.8078 23.0802 25.4499 23.2512 25.7418 23.7573C26.0336 24.2633 25.8646 24.9129 25.3643 25.2081L18.7774 29.0952C18.0778 29.5081 17.2126 29.5081 16.5129 29.0952L10.5206 25.559C9.83027 25.1516 9.40576 24.4039 9.40576 23.5954V16.5013C9.40576 15.6928 9.83027 14.9451 10.5206 14.5377L16.5129 11.0016Z" fill="#060028"/>
<path fill-rule="evenodd" clip-rule="evenodd" d="M59.6012 21.0617C59.5987 21.0639 59.596 21.0661 59.5934 21.0681C59.3544 21.2535 59.1028 21.3556 58.8411 21.3556H47.3022V24.3663C47.3022 25.1034 47.9142 25.8886 49.2241 26.7112C50.5264 27.5048 51.6561 27.8903 52.6181 27.8903C53.9486 27.8903 55.3496 27.5033 57.5291 26.3427C57.8054 26.1924 58.0117 26.0812 58.2804 26.0047C58.381 25.976 58.4854 25.9597 58.5894 25.9706C58.7803 25.9906 59.1021 26.0752 59.3024 26.4032C59.6017 26.8932 59.4085 27.3158 59.3996 27.3325C59.1245 27.8475 58.1018 28.3337 57.9993 28.3815C55.6152 29.6326 54.1862 29.9822 52.595 29.9822C51.2098 29.9822 49.6475 29.4455 47.9125 28.3934L47.9114 28.3927C46.2106 27.3421 45.3018 26.2211 45.3018 25.0184V15.8751C45.3018 14.742 46.2315 13.6453 47.9581 12.5739C49.6931 11.4972 51.2559 10.9478 52.642 10.9478C54.0272 10.9478 55.5895 11.4844 57.3245 12.5366C59.0529 13.5848 59.9822 14.6814 59.9822 15.8387V20.4353C59.9822 20.6539 59.8239 20.8642 59.6012 21.0617ZM49.3008 14.1484C48.6455 14.5478 48.141 14.9043 47.8012 15.2516C47.4627 15.5976 47.3022 15.9194 47.3022 16.2518V19.399H57.9818V16.2154C57.9818 15.5293 57.4971 14.912 56.1843 14.112C54.8826 13.3186 53.7367 12.9325 52.7426 12.9325C51.7496 12.9325 50.6044 13.3299 49.3025 14.1473L49.3008 14.1484ZM75.1449 13.7858L75.1435 13.785C73.8408 12.9911 72.7109 12.6055 71.7487 12.6055C70.7545 12.6055 69.6087 12.9916 68.3069 13.785C67.6474 14.187 67.1695 14.5009 66.8554 14.809C66.5478 15.1108 66.4089 15.3956 66.4089 15.7438V24.1473C66.4089 24.867 67.0084 25.786 68.3053 26.5769C69.6475 27.3514 70.8928 27.8496 71.8509 27.8496C72.7726 27.8496 73.7934 27.3451 75.1449 26.5406C76.477 25.7476 77.0885 24.84 77.0885 24.1473V15.7438C77.0885 15.3969 76.9469 15.1125 76.6315 14.8103C76.3097 14.5019 75.8202 14.1878 75.1449 13.7858ZM76.4326 28.1369L76.4312 28.1377C74.6985 29.1885 73.2378 29.7265 71.8509 29.7265C70.1577 29.7265 68.2833 28.9734 66.4089 27.4916V34.6125C66.4095 34.627 66.4098 34.6415 66.4098 34.6561V35.6347C66.4098 35.9572 66.255 36.26 65.9939 36.4483C65.6452 36.6998 65.1752 36.6998 64.8265 36.4483C64.5653 36.26 64.4105 35.9572 64.4105 35.6347V34.8532C64.4092 34.8357 64.4085 34.818 64.4085 34.8001V15.583C64.4085 14.4492 65.339 13.3649 67.0655 12.3178C68.8002 11.2414 70.3628 10.6921 71.7487 10.6921C73.1648 10.6921 74.7271 11.2284 76.4317 12.2812C78.1598 13.3293 79.0889 14.4258 79.0889 15.583V24.8721C79.0889 25.4285 78.8535 25.9784 78.4077 26.5192C77.9625 27.0591 77.3015 27.5977 76.4326 28.1369ZM85.9526 12.2816L85.9536 12.2809C87.6893 11.2284 89.2672 10.6921 90.6831 10.6921C92.0991 10.6921 93.6611 11.2283 95.3656 12.2809C97.095 13.3055 98.0234 14.4018 98.0234 15.583V24.8356C98.0234 25.9687 97.0936 27.0654 95.367 28.1369L95.3657 28.1377C93.6307 29.1899 92.0683 29.7265 90.6831 29.7265C89.2979 29.7265 87.7356 29.1899 86.0006 28.1377L85.9992 28.1369C84.2726 27.0654 83.3429 25.9687 83.3429 24.8356V15.583C83.3429 14.4271 84.2546 13.3304 85.9526 12.2816ZM94.0794 13.7494L94.078 13.7486C92.7753 12.9546 91.6453 12.5691 90.6831 12.5691C89.6889 12.5691 88.5431 12.9552 87.2413 13.7486C85.9316 14.5468 85.3433 15.308 85.3433 16.0201V24.2963C85.3433 25.0084 85.9316 25.7696 87.2413 26.5679C88.5431 27.3612 89.6889 27.7474 90.6831 27.7474C91.6453 27.7474 92.7753 27.3618 94.078 26.5679L94.0793 26.567C95.4216 25.768 96.023 25.0066 96.023 24.2963V16.0201C96.023 15.3098 95.4216 14.5484 94.0794 13.7494ZM112.453 13.8572L112.451 13.8561C111.208 13.06 110.189 12.6783 109.388 12.6783C108.586 12.6783 107.567 13.049 106.323 13.8208C105.077 14.5941 104.518 15.3309 104.518 16.0201V27.6722C104.518 27.6819 104.518 27.6917 104.518 27.7015V28.68C104.518 29.0025 104.364 29.3053 104.103 29.4936C103.754 29.7451 103.284 29.7451 102.935 29.4936C102.674 29.3053 102.519 29.0025 102.519 28.68V27.756C102.518 27.7408 102.518 27.7254 102.518 27.7099V15.4737C102.518 14.3893 103.416 13.3289 105.079 12.2823C106.748 11.232 108.187 10.6921 109.388 10.6921C110.36 10.6921 111.402 10.9934 112.513 11.5845C113.571 12.1468 114.486 12.8109 115.258 13.5774C116.004 12.8336 116.92 12.1817 118.004 11.6207C119.144 11.007 120.171 10.6921 121.082 10.6921C122.376 10.6921 123.846 11.2307 125.486 12.2828C127.12 13.3067 128 14.3668 128 15.4737V27.7C128 27.7049 128 27.7099 128 27.7148V28.6934C128 29.0159 127.845 29.3187 127.584 29.507C127.235 29.7585 126.765 29.7585 126.416 29.507C126.155 29.3187 126.001 29.0159 126.001 28.6934V27.7513C126 27.7377 125.999 27.7238 125.999 27.7099V16.0201C125.999 15.3309 125.44 14.5941 124.194 13.8208C122.951 13.0497 121.916 12.6783 121.082 12.6783C120.248 12.6783 119.229 13.0493 118.019 13.8198C116.805 14.5923 116.259 15.3291 116.259 16.0201V27.6915C116.259 27.6993 116.259 27.707 116.259 27.7148V28.6934C116.259 29.0159 116.104 29.3187 115.843 29.507C115.494 29.7585 115.025 29.7585 114.676 29.507C114.415 29.3187 114.26 29.0159 114.26 28.6934V27.7538C114.259 27.7393 114.258 27.7246 114.258 27.7099V16.0201C114.258 15.3565 113.702 14.6318 112.453 13.8572Z" fill="#060028"/>
</svg>
